<mxfile modified="2020-06-07T11:44:07.152Z" host="app.diagrams.net" agent="5.0 (Macintosh; Intel Mac OS X 10_14_0) AppleWebKit/537.36 (KHTML, like Gecko) Chrome/81.0.4044.138 Safari/537.36" etag="vZyo7v5JSS-_e7iD2nfL" version="13.1.14" type="github">
  <diagram id="d1ab7348-05c3-a1e3-ca4d-12c340fd6b49" name="Page-1">
    <mxGraphModel dx="946" dy="565" grid="1" gridSize="10" guides="1" tooltips="1" connect="1" arrows="1" fold="1" page="1" pageScale="1" pageWidth="1169" pageHeight="827" background="#ffffff" math="0" shadow="0">
      <root>
        <mxCell id="0" />
        <mxCell id="1" parent="0" />
        <mxCell id="407" style="edgeStyle=orthogonalEdgeStyle;rounded=0;html=1;dashed=0;labelBackgroundColor=none;startArrow=none;startFill=0;startSize=4;endArrow=blockThin;endFill=1;endSize=4;strokeColor=#4284F3;strokeWidth=2;fontSize=12;" parent="1" edge="1">
          <mxGeometry relative="1" as="geometry">
            <Array as="points">
              <mxPoint x="648.5" y="550" />
              <mxPoint x="648.5" y="235" />
            </Array>
            <mxPoint x="680.5" y="235" as="targetPoint" />
          </mxGeometry>
        </mxCell>
        <mxCell id="409" style="edgeStyle=orthogonalEdgeStyle;rounded=0;html=1;dashed=0;labelBackgroundColor=none;startArrow=none;startFill=0;startSize=4;endArrow=blockThin;endFill=1;endSize=4;strokeColor=#4284F3;strokeWidth=2;fontSize=12;" parent="1" edge="1">
          <mxGeometry relative="1" as="geometry">
            <mxPoint x="759.5" y="200" as="sourcePoint" />
          </mxGeometry>
        </mxCell>
        <mxCell id="xwxbCeUritOEieoB_8Dk-433" value="Architecture: Mountkirk Games Case Study" style="fillColor=#4DA1F5;strokeColor=none;shadow=1;gradientColor=none;fontSize=14;align=left;spacingLeft=50;fontColor=#ffffff;" parent="1" vertex="1">
          <mxGeometry x="45" width="1000" height="40" as="geometry" />
        </mxCell>
        <mxCell id="isCxg0S9MCMh4zA0xf7g-409" value="" style="group" parent="1" vertex="1" connectable="0">
          <mxGeometry x="45" y="240" width="130.5" height="160" as="geometry" />
        </mxCell>
        <mxCell id="340" value="&lt;font style=&quot;font-size: 10px&quot;&gt;Mountkirk Games users all&lt;br&gt;around the world&lt;br&gt;&lt;/font&gt;" style="rounded=1;absoluteArcSize=1;arcSize=2;html=1;strokeColor=none;gradientColor=none;shadow=0;dashed=0;fontSize=12;fontColor=#9E9E9E;align=left;verticalAlign=top;spacing=10;spacingTop=-4;fillColor=#EFEBE9;" parent="isCxg0S9MCMh4zA0xf7g-409" vertex="1">
          <mxGeometry width="130.5" height="160" as="geometry" />
        </mxCell>
        <mxCell id="xwxbCeUritOEieoB_8Dk-444" value="Mobile Devices" style="strokeColor=#dddddd;shadow=1;strokeWidth=1;rounded=1;absoluteArcSize=1;arcSize=2;labelPosition=center;verticalLabelPosition=middle;align=center;verticalAlign=bottom;spacingLeft=0;fontColor=#999999;fontSize=12;whiteSpace=wrap;spacingBottom=2;" parent="isCxg0S9MCMh4zA0xf7g-409" vertex="1">
          <mxGeometry x="30.25" y="46" width="70" height="100" as="geometry" />
        </mxCell>
        <mxCell id="xwxbCeUritOEieoB_8Dk-445" value="" style="dashed=0;connectable=0;html=1;fillColor=#757575;strokeColor=none;shape=mxgraph.gcp2.mobile_devices;part=1;" parent="xwxbCeUritOEieoB_8Dk-444" vertex="1">
          <mxGeometry x="0.5" width="50" height="36.5" relative="1" as="geometry">
            <mxPoint x="-25" y="16.75" as="offset" />
          </mxGeometry>
        </mxCell>
        <mxCell id="oC8XXLY1Rj8nTh44MOHi-439" value="" style="group" vertex="1" connectable="0" parent="1">
          <mxGeometry x="330" y="40" width="711.5" height="590" as="geometry" />
        </mxCell>
        <mxCell id="2" value="&lt;b&gt;Google &lt;/b&gt;Cloud Platform" style="fillColor=#F6F6F6;strokeColor=none;shadow=0;gradientColor=none;fontSize=14;align=left;spacing=10;fontColor=#717171;9E9E9E;verticalAlign=top;spacingTop=-4;fontStyle=0;spacingLeft=40;html=1;" parent="oC8XXLY1Rj8nTh44MOHi-439" vertex="1">
          <mxGeometry width="711.5" height="590" as="geometry" />
        </mxCell>
        <mxCell id="3" value="" style="shape=mxgraph.gcp2.google_cloud_platform;fillColor=#F6F6F6;strokeColor=none;shadow=0;gradientColor=none;" parent="2" vertex="1">
          <mxGeometry width="23" height="20" relative="1" as="geometry">
            <mxPoint x="20" y="10" as="offset" />
          </mxGeometry>
        </mxCell>
        <mxCell id="oC8XXLY1Rj8nTh44MOHi-413" value="Game Backend Platform" style="rounded=1;absoluteArcSize=1;arcSize=2;html=1;strokeColor=#4284F3;gradientColor=none;shadow=0;dashed=1;fontSize=12;fontColor=#9E9E9E;align=left;verticalAlign=top;spacing=10;spacingTop=-4;fillColor=none;dashPattern=1 2;strokeWidth=2;" vertex="1" parent="2">
          <mxGeometry x="14.5" y="36" width="640" height="254" as="geometry" />
        </mxCell>
        <mxCell id="oC8XXLY1Rj8nTh44MOHi-416" value="Game Analytics Platform" style="rounded=1;absoluteArcSize=1;arcSize=2;html=1;strokeColor=#4284F3;gradientColor=none;shadow=0;dashed=1;fontSize=12;fontColor=#9E9E9E;align=left;verticalAlign=top;spacing=10;spacingTop=-4;fillColor=none;dashPattern=1 2;strokeWidth=2;" vertex="1" parent="2">
          <mxGeometry x="14.5" y="320" width="640" height="254" as="geometry" />
        </mxCell>
        <mxCell id="oC8XXLY1Rj8nTh44MOHi-414" value="" style="strokeColor=#dddddd;fillColor=#ffffff;shadow=1;strokeWidth=1;rounded=1;absoluteArcSize=1;arcSize=2;fontSize=12;fontColor=#9E9E9E;align=center;html=1;" vertex="1" parent="oC8XXLY1Rj8nTh44MOHi-439">
          <mxGeometry x="217.25" y="342" width="204.5" height="62.4" as="geometry" />
        </mxCell>
        <mxCell id="oC8XXLY1Rj8nTh44MOHi-415" value="&lt;font color=&quot;#000000&quot;&gt;Streaming&lt;/font&gt;&lt;br&gt;Cloud Pub/Sub&lt;hr&gt;&lt;span style=&quot;font-size: 11px&quot;&gt;Field Data from&amp;nbsp;&lt;/span&gt;&lt;font style=&quot;font-size: 11px&quot;&gt;the vehicles&lt;/font&gt;" style="dashed=0;connectable=0;html=1;fillColor=#5184F3;strokeColor=none;shape=mxgraph.gcp2.hexIcon;prIcon=cloud_pubsub;part=1;labelPosition=right;verticalLabelPosition=middle;align=left;verticalAlign=top;spacingLeft=5;fontColor=#999999;fontSize=12;spacingTop=-8;" vertex="1" parent="oC8XXLY1Rj8nTh44MOHi-414">
          <mxGeometry width="44" height="39" relative="1" as="geometry">
            <mxPoint x="5" y="7" as="offset" />
          </mxGeometry>
        </mxCell>
        <mxCell id="oC8XXLY1Rj8nTh44MOHi-426" style="edgeStyle=orthogonalEdgeStyle;rounded=0;orthogonalLoop=1;jettySize=auto;html=1;strokeColor=#007FFF;exitX=0.5;exitY=1;exitDx=0;exitDy=0;" edge="1" parent="oC8XXLY1Rj8nTh44MOHi-439" source="oC8XXLY1Rj8nTh44MOHi-417" target="oC8XXLY1Rj8nTh44MOHi-414">
          <mxGeometry relative="1" as="geometry" />
        </mxCell>
        <mxCell id="oC8XXLY1Rj8nTh44MOHi-417" value="" style="shape=mxgraph.gcp2.doubleRect;strokeColor=#dddddd;shadow=1;strokeWidth=1;" vertex="1" parent="oC8XXLY1Rj8nTh44MOHi-439">
          <mxGeometry x="24.5" y="80" width="158" height="110" as="geometry" />
        </mxCell>
        <mxCell id="oC8XXLY1Rj8nTh44MOHi-418" value="&lt;font color=&quot;#000000&quot;&gt;Hardened Linux &lt;br&gt;Servers&lt;br&gt;&lt;/font&gt;Compute Engine&lt;hr&gt;&lt;font style=&quot;font-size: 11px&quot;&gt;Autoscaling based&amp;nbsp;&lt;br&gt;on game activity&lt;br&gt;&lt;/font&gt;" style="dashed=0;connectable=0;html=1;fillColor=#5184F3;strokeColor=none;shape=mxgraph.gcp2.compute_engine;part=1;labelPosition=right;verticalLabelPosition=middle;align=left;verticalAlign=top;spacingLeft=5;fontColor=#999999;fontSize=12;spacingTop=-8;" vertex="1" parent="oC8XXLY1Rj8nTh44MOHi-417">
          <mxGeometry width="44" height="39" relative="1" as="geometry">
            <mxPoint x="5" y="7" as="offset" />
          </mxGeometry>
        </mxCell>
        <mxCell id="oC8XXLY1Rj8nTh44MOHi-422" value="" style="shape=mxgraph.gcp2.doubleRect;strokeColor=#dddddd;shadow=1;strokeWidth=1;" vertex="1" parent="oC8XXLY1Rj8nTh44MOHi-439">
          <mxGeometry x="421.75" y="40" width="158" height="68" as="geometry" />
        </mxCell>
        <mxCell id="oC8XXLY1Rj8nTh44MOHi-423" value="&lt;font color=&quot;#000000&quot;&gt;User Profiles and&lt;br&gt;Game state&lt;/font&gt;&lt;br&gt;Cloud Spanner" style="dashed=0;connectable=0;html=1;fillColor=#5184F3;strokeColor=none;shape=mxgraph.gcp2.hexIcon;prIcon=cloud_spanner;part=1;labelPosition=right;verticalLabelPosition=middle;align=left;verticalAlign=middle;spacingLeft=5;fontColor=#999999;fontSize=12;" vertex="1" parent="oC8XXLY1Rj8nTh44MOHi-422">
          <mxGeometry y="0.5" width="44" height="39" relative="1" as="geometry">
            <mxPoint x="5" y="-19.5" as="offset" />
          </mxGeometry>
        </mxCell>
        <mxCell id="oC8XXLY1Rj8nTh44MOHi-428" style="edgeStyle=orthogonalEdgeStyle;rounded=0;orthogonalLoop=1;jettySize=auto;html=1;strokeColor=#007FFF;" edge="1" parent="oC8XXLY1Rj8nTh44MOHi-439" source="oC8XXLY1Rj8nTh44MOHi-417" target="oC8XXLY1Rj8nTh44MOHi-422">
          <mxGeometry relative="1" as="geometry" />
        </mxCell>
        <mxCell id="oC8XXLY1Rj8nTh44MOHi-424" value="" style="strokeColor=#dddddd;fillColor=#ffffff;shadow=1;strokeWidth=1;rounded=1;absoluteArcSize=1;arcSize=2;fontSize=12;fontColor=#9E9E9E;align=center;html=1;" vertex="1" parent="oC8XXLY1Rj8nTh44MOHi-439">
          <mxGeometry x="34.5" y="440" width="157" height="85" as="geometry" />
        </mxCell>
        <mxCell id="oC8XXLY1Rj8nTh44MOHi-425" value="&lt;font color=&quot;#000000&quot;&gt;Data Warehouse&lt;/font&gt;&lt;br&gt;BigQuery&lt;hr&gt;&lt;font style=&quot;font-size: 11px&quot;&gt;Historical Data and&lt;br&gt;NRT Data&lt;br&gt;&lt;/font&gt;" style="dashed=0;connectable=0;html=1;fillColor=#5184F3;strokeColor=none;shape=mxgraph.gcp2.hexIcon;prIcon=bigquery;part=1;labelPosition=right;verticalLabelPosition=middle;align=left;verticalAlign=top;spacingLeft=5;fontColor=#999999;fontSize=12;spacingTop=-8;" vertex="1" parent="oC8XXLY1Rj8nTh44MOHi-424">
          <mxGeometry width="44" height="39" relative="1" as="geometry">
            <mxPoint x="5" y="7" as="offset" />
          </mxGeometry>
        </mxCell>
        <mxCell id="oC8XXLY1Rj8nTh44MOHi-429" value="" style="strokeColor=#dddddd;shadow=1;strokeWidth=1;rounded=1;absoluteArcSize=1;arcSize=2;" vertex="1" parent="oC8XXLY1Rj8nTh44MOHi-439">
          <mxGeometry x="421.75" y="130" width="140" height="60" as="geometry" />
        </mxCell>
        <mxCell id="oC8XXLY1Rj8nTh44MOHi-430" value="&lt;font color=&quot;#000000&quot;&gt;Time-Series&amp;nbsp;&lt;br&gt;Data&lt;/font&gt;&lt;br&gt;Cloud Bigtable" style="dashed=0;connectable=0;html=1;fillColor=#5184F3;strokeColor=none;shape=mxgraph.gcp2.hexIcon;prIcon=cloud_bigtable;part=1;labelPosition=right;verticalLabelPosition=middle;align=left;verticalAlign=middle;spacingLeft=5;fontColor=#999999;fontSize=12;" vertex="1" parent="oC8XXLY1Rj8nTh44MOHi-429">
          <mxGeometry y="0.5" width="44" height="39" relative="1" as="geometry">
            <mxPoint x="5" y="-19.5" as="offset" />
          </mxGeometry>
        </mxCell>
        <mxCell id="oC8XXLY1Rj8nTh44MOHi-431" style="edgeStyle=orthogonalEdgeStyle;rounded=0;orthogonalLoop=1;jettySize=auto;html=1;entryX=0;entryY=0.5;entryDx=0;entryDy=0;strokeColor=#007FFF;" edge="1" parent="oC8XXLY1Rj8nTh44MOHi-439" source="oC8XXLY1Rj8nTh44MOHi-417" target="oC8XXLY1Rj8nTh44MOHi-429">
          <mxGeometry relative="1" as="geometry" />
        </mxCell>
        <mxCell id="oC8XXLY1Rj8nTh44MOHi-436" style="edgeStyle=orthogonalEdgeStyle;rounded=0;orthogonalLoop=1;jettySize=auto;html=1;strokeColor=#007FFF;" edge="1" parent="oC8XXLY1Rj8nTh44MOHi-439" source="oC8XXLY1Rj8nTh44MOHi-433" target="oC8XXLY1Rj8nTh44MOHi-424">
          <mxGeometry relative="1" as="geometry" />
        </mxCell>
        <mxCell id="oC8XXLY1Rj8nTh44MOHi-437" style="edgeStyle=orthogonalEdgeStyle;rounded=0;orthogonalLoop=1;jettySize=auto;html=1;exitX=0.75;exitY=0;exitDx=0;exitDy=0;entryX=0.5;entryY=1;entryDx=0;entryDy=0;strokeColor=#007FFF;" edge="1" parent="oC8XXLY1Rj8nTh44MOHi-439" source="oC8XXLY1Rj8nTh44MOHi-433" target="oC8XXLY1Rj8nTh44MOHi-429">
          <mxGeometry relative="1" as="geometry" />
        </mxCell>
        <mxCell id="oC8XXLY1Rj8nTh44MOHi-433" value="" style="strokeColor=#dddddd;shadow=1;strokeWidth=1;rounded=1;absoluteArcSize=1;arcSize=2;" vertex="1" parent="oC8XXLY1Rj8nTh44MOHi-439">
          <mxGeometry x="425.75" y="440" width="150" height="85" as="geometry" />
        </mxCell>
        <mxCell id="oC8XXLY1Rj8nTh44MOHi-434" value="&lt;font color=&quot;#000000&quot;&gt;Data Processing&lt;/font&gt;&lt;br&gt;Cloud Dataflow&lt;hr&gt;&lt;font style=&quot;font-size: 11px&quot;&gt;Batch, Streaming&lt;br&gt;and late data&lt;br&gt;&lt;/font&gt;" style="dashed=0;connectable=0;html=1;fillColor=#5184F3;strokeColor=none;shape=mxgraph.gcp2.cloud_dataflow;part=1;labelPosition=right;verticalLabelPosition=middle;align=left;verticalAlign=top;spacingLeft=5;fontColor=#999999;fontSize=12;spacingTop=-8;" vertex="1" parent="oC8XXLY1Rj8nTh44MOHi-433">
          <mxGeometry width="44" height="39" relative="1" as="geometry">
            <mxPoint x="5" y="7" as="offset" />
          </mxGeometry>
        </mxCell>
        <mxCell id="oC8XXLY1Rj8nTh44MOHi-435" style="edgeStyle=orthogonalEdgeStyle;rounded=0;orthogonalLoop=1;jettySize=auto;html=1;strokeColor=#007FFF;" edge="1" parent="oC8XXLY1Rj8nTh44MOHi-439" source="oC8XXLY1Rj8nTh44MOHi-414" target="oC8XXLY1Rj8nTh44MOHi-433">
          <mxGeometry relative="1" as="geometry" />
        </mxCell>
        <mxCell id="oC8XXLY1Rj8nTh44MOHi-441" style="edgeStyle=orthogonalEdgeStyle;rounded=0;orthogonalLoop=1;jettySize=auto;html=1;entryX=0.009;entryY=0.37;entryDx=0;entryDy=0;entryPerimeter=0;strokeColor=#007FFF;exitX=0.561;exitY=0.329;exitDx=0;exitDy=0;exitPerimeter=0;" edge="1" parent="1" source="oC8XXLY1Rj8nTh44MOHi-440" target="oC8XXLY1Rj8nTh44MOHi-413">
          <mxGeometry relative="1" as="geometry">
            <Array as="points">
              <mxPoint x="233" y="310" />
              <mxPoint x="233" y="170" />
            </Array>
          </mxGeometry>
        </mxCell>
        <mxCell id="oC8XXLY1Rj8nTh44MOHi-440" value="Cloud Load&#xa;Balancing" style="html=1;fillColor=#5184F3;strokeColor=none;verticalAlign=top;labelPosition=center;verticalLabelPosition=bottom;align=center;spacingTop=-6;fontSize=11;fontStyle=1;fontColor=#999999;shape=mxgraph.gcp2.hexIcon;prIcon=cloud_load_balancing" vertex="1" parent="1">
          <mxGeometry x="200" y="290.75" width="66" height="58.5" as="geometry" />
        </mxCell>
        <mxCell id="oC8XXLY1Rj8nTh44MOHi-447" value="" style="edgeStyle=orthogonalEdgeStyle;rounded=0;orthogonalLoop=1;jettySize=auto;html=1;strokeColor=#007FFF;entryX=0.175;entryY=0.5;entryDx=0;entryDy=0;entryPerimeter=0;" edge="1" parent="1" source="340" target="oC8XXLY1Rj8nTh44MOHi-440">
          <mxGeometry relative="1" as="geometry" />
        </mxCell>
      </root>
    </mxGraphModel>
  </diagram>
</mxfile>
